HIERARCHY
ROOT Bip001_Pelvis
{
  OFFSET 33.2923 95.8902 -28.781
  CHANNELS 6 Xposition Yposition Zposition Zrotation Xrotation Yrotation
  JOINT Bip001_Spine
  {
    OFFSET 1.4188e-005 10.2191 -0.0116013
    CHANNELS 3 Zrotation Xrotation Yrotation
    JOINT Bip001_L_Thigh
    {
      OFFSET 11.0458 -10.2192 0.0116197
      CHANNELS 3 Zrotation Xrotation Yrotation
      JOINT Bip001_L_Calf
      {
        OFFSET -0.707118 -44.0221 0.360014
        CHANNELS 3 Zrotation Xrotation Yrotation
        JOINT Bip001_L_Foot
        {
          OFFSET -0.651902 -40.5938 -3.56146
          CHANNELS 3 Zrotation Xrotation Yrotation
          JOINT Bip001_L_Toe0
          {
            OFFSET 0.0530839 -10.2181 13.1504
            CHANNELS 3 Zrotation Xrotation Yrotation
            End Site
            {
              OFFSET -1.02532e-005 0 7.55606
            }
          }
        }
      }
    }
    JOINT Bip001_R_Thigh
    {
      OFFSET -11.0458 -10.2191 0.0115893
      CHANNELS 3 Zrotation Xrotation Yrotation
      JOINT Bip001_R_Calf
      {
        OFFSET 0.706994 -44.0221 0.35984
        CHANNELS 3 Zrotation Xrotation Yrotation
        JOINT Bip001_R_Foot
        {
          OFFSET 0.651786 -40.5938 -3.5613
          CHANNELS 3 Zrotation Xrotation Yrotation
          JOINT Bip001_R_Toe0
          {
            OFFSET -0.0531479 -10.2181 13.1504
            CHANNELS 3 Zrotation Xrotation Yrotation
            End Site
            {
              OFFSET -1.02894e-005 0 7.55606
            }
          }
        }
      }
    }
    JOINT Bip001_Spine1
    {
      OFFSET 1.87041e-005 14.5736 1.08638
      CHANNELS 3 Zrotation Xrotation Yrotation
      JOINT Bip001_Spine2
      {
        OFFSET 2.24614e-005 14.5058 -1.69078
        CHANNELS 3 Zrotation Xrotation Yrotation
        JOINT Bip001_Neck
        {
          OFFSET 2.20278e-005 15.3945 -0.489414
          CHANNELS 3 Zrotation Xrotation Yrotation
          JOINT Bip001_L_Clavicle
          {
            OFFSET 6.06036 -0.000579998 0.00836775
            CHANNELS 3 Zrotation Xrotation Yrotation
            JOINT Bip001_L_UpperArm
            {
              OFFSET 11.5509 -0.0600302 0.00193952
              CHANNELS 3 Zrotation Xrotation Yrotation
              JOINT Bip001_L_Forearm
              {
                OFFSET 25.9523 0.0806089 -2.15551
                CHANNELS 3 Zrotation Xrotation Yrotation
                JOINT Bip001_L_Hand
                {
                  OFFSET 32.2476 0.153767 1.63968
                  CHANNELS 3 Zrotation Xrotation Yrotation
                  JOINT Bip001_L_Finger0
                  {
                    OFFSET 6.04639 -2.20976 5.90322
                    CHANNELS 3 Zrotation Xrotation Yrotation
                    End Site
                    {
                      OFFSET 4.22376 -1.43895 0.606486
                    }
                  }
                  JOINT Bip001_L_Finger1
                  {
                    OFFSET 11.0826 -0.704819 -0.198153
                    CHANNELS 3 Zrotation Xrotation Yrotation
                    End Site
                    {
                      OFFSET 6.20028 -0.397518 -0.0787166
                    }
                  }
                }
              }
            }
          }
          JOINT Bip001_R_Clavicle
          {
            OFFSET -6.06036 -0.000563197 0.00835105
            CHANNELS 3 Zrotation Xrotation Yrotation
            JOINT Bip001_R_UpperArm
            {
              OFFSET -11.5509 -0.0599978 0.00190698
              CHANNELS 3 Zrotation Xrotation Yrotation
              JOINT Bip001_R_Forearm
              {
                OFFSET -25.9523 0.080682 -2.1559
                CHANNELS 3 Zrotation Xrotation Yrotation
                JOINT Bip001_R_Hand
                {
                  OFFSET -32.2476 0.153858 1.63991
                  CHANNELS 3 Zrotation Xrotation Yrotation
                  JOINT Bip001_R_Finger0
                  {
                    OFFSET -6.04641 -2.20974 5.90321
                    CHANNELS 3 Zrotation Xrotation Yrotation
                    End Site
                    {
                      OFFSET -4.22376 -1.43894 0.606474
                    }
                  }
                  JOINT Bip001_R_Finger1
                  {
                    OFFSET -11.0826 -0.704789 -0.198184
                    CHANNELS 3 Zrotation Xrotation Yrotation
                    End Site
                    {
                      OFFSET -6.20028 -0.397501 -0.0787338
                    }
                  }
                }
              }
            }
          }
          JOINT Bip001_Head
          {
            OFFSET 1.09673e-005 11.2744 2.05948
            CHANNELS 3 Zrotation Xrotation Yrotation
            End Site
            {
              OFFSET 2.89576e-005 20.8808 -2.77728e-005
            }
          }
        }
      }
    }
  }
}
MOTION
Frames:	8
Frame Time:	0.04
32.3728 95.9098 -29.0218 1.00558 -0.382205 2.39929 -0.337973 2.63411 -0.477154 4.67789 -3.58677 6.4903 -0.484391 6.34524 -12.3729 4.74652 -0.72773 -0.210391 -3.10783 -4.85901 5.03325 -3.40502 -4.23443 -0.737027 0.474841 11.4432 -0.336968 -5.73505 -9.98847 1.29516 1.95699 -7.00057 2.45418 -0.653156 5.26824 -0.940203 -0.653436 5.26823 -0.940259 -0.456321 3.38163 -0.874855 -23.228 -1.20725 -4.50965 -49.7309 39.2511 -2.82969 11.8121 1.30287 -24.6244 8.23892 1.07015 -1.82308 -3.18055e-015 3.18055e-015 -1.59028e-015 -3.18055e-015 0 -3.18055e-015 25.2217 6.15735 26.5533 58.761 -30.3017 31.0667 -28.6648 -4.06386 101.732 -41.5648 11.0544 10.0026 -1.76556e-031 3.18055e-015 3.18055e-015 -8.82782e-032 3.18056e-015 1.59028e-015 3.44083 7.54794 -1.97865 
32.3292 95.9175 -28.9485 1.15252 -0.510148 2.46176 -0.360806 2.66733 -0.439297 4.59083 -3.27651 7.05386 -0.472902 5.9876 -13.0042 4.82926 -0.544214 -0.223603 -3.03441 -4.8837 4.9755 -3.44671 -4.1258 -0.567242 0.430185 11.5411 -0.488304 -5.74117 -10.0491 1.18316 1.95574 -7.01855 2.45333 -0.702292 5.33726 -0.863262 -0.702294 5.33729 -0.863264 -0.0957421 3.35404 -1.10355 -23.5302 -1.2686 -4.32358 -49.889 39.3208 -2.71309 12.0184 1.26384 -24.653 8.35039 0.977935 -1.99742 -6.36111e-015 -6.36111e-015 -1.59028e-015 -6.36111e-015 -3.18056e-015 -3.18055e-015 23.6335 6.26086 27.8501 59.6187 -26.8668 33.8336 -31.6862 -3.51207 99.1544 -49.483 9.12232 10.828 -1.59028e-015 -3.18055e-015 1.59028e-015 -1.59028e-015 -6.36111e-015 7.95139e-016 3.0305 7.70692 -1.97911 
32.2585 95.9249 -28.9885 1.01495 -0.41262 2.83679 -0.310704 2.65767 -0.461281 4.78764 -3.61007 6.66831 -0.556883 6.29614 -12.8974 4.60758 -0.750795 -0.203652 -3.0943 -4.75696 5.01862 -3.26586 -4.10469 -0.532962 0.406936 11.3616 -0.622427 -5.79987 -9.90318 0.934729 1.95244 -7.00452 2.45128 -0.603425 5.31769 -0.909646 -0.600932 5.3177 -0.90959 0.159334 3.39585 -1.33276 -23.7497 -1.371 -4.24453 -49.5578 38.7025 -2.85374 11.4063 1.87185 -24.9523 8.67289 0.813118 -1.99274 -8.82781e-032 -3.18055e-015 -1.59028e-015 3.18055e-015 -3.18056e-015 -1.59028e-015 22.1499 6.25741 29.1426 58.4944 -22.3283 36.3817 -32.6051 -2.90308 93.628 -53.724 7.26776 11.7142 4.77083e-015 6.36111e-015 3.97569e-015 3.18055e-015 9.54167e-015 1.59028e-015 2.54851 7.67017 -1.9781 
32.2008 95.9251 -28.9605 1.01255 -0.441278 2.85807 -0.291586 2.66594 -0.430644 4.81751 -3.53835 6.95659 -0.556053 6.21209 -13.2378 4.61344 -0.689691 -0.206241 -3.09994 -4.77844 5.00216 -3.21933 -4.05672 -0.429594 0.388853 11.3448 -0.657522 -5.83796 -9.89169 0.826575 1.94875 -6.98431 2.4484 -0.560981 5.33396 -0.849053 -0.56411 5.33398 -0.849052 0.30702 3.50185 -1.49676 -24.0049 -1.51473 -4.18876 -49.8405 39.1024 -2.482 11.5637 1.09836 -24.9299 8.44421 0.930224 -1.74012 9.54166e-015 -3.18055e-015 -0 6.36111e-015 0 1.59028e-015 20.8869 6.19054 30.4303 51.0691 -14.57 35.8203 -33.4026 -7.91574 83.8631 -50.4709 6.64193 13.28 -6.36111e-015 3.18055e-015 -0 -3.18055e-015 3.18056e-015 4.77083e-015 2.12723 7.65457 -1.97229 
32.1495 95.9268 -28.9131 1.02046 -0.544201 2.67658 -0.293404 2.70929 -0.372757 4.87121 -3.38695 7.3831 -0.537422 6.17613 -13.527 4.29468 -0.889203 -0.183544 -3.25757 -4.53187 5.14898 -3.17335 -3.99228 -0.288811 0.366966 11.3387 -0.6508 -5.84212 -9.90632 0.818321 1.9428 -6.962 2.43062 -0.570072 5.4204 -0.732653 -0.569189 5.4204 -0.732798 0.471681 3.08188 -1.5892 -24.0301 -1.20476 -3.85101 -50.4911 40.1355 -2.19953 12.3512 -0.170023 -24.5645 8.09188 1.01038 -1.67215 -0 -1.27222e-014 -0 -3.18055e-015 -1.27222e-014 3.18055e-015 18.9873 6.37509 31.5981 43.3818 -7.02172 36.6848 -37.7368 -13.5868 72.6518 -55.5363 8.48469 9.47708 -3.18055e-015 0 -7.95139e-015 -3.18055e-015 0 -6.36111e-015 1.86686 8.23808 -1.93883 
32.1328 95.9266 -28.8467 1.10598 -0.748188 2.4786 -0.312047 2.77311 -0.259584 4.76341 -3.01207 7.78331 -0.487127 5.82905 -13.9451 4.59962 -0.504695 -0.212159 -3.06866 -4.89497 4.99785 -3.22504 -3.87287 -0.313528 0.348276 11.4161 -0.644356 -5.81109 -9.99308 0.890542 1.9317 -6.9124 2.41947 -0.616147 5.54773 -0.504652 -0.614341 5.54771 -0.504644 0.885565 2.91442 -1.89569 -24.4931 -1.18899 -3.49053 -50.1891 40.2804 -2.52333 12.2768 -0.337047 -24.4857 8.074 1.11992 -1.5685 6.36111e-015 -3.18055e-015 3.18055e-015 6.36111e-015 -3.18056e-015 1.59028e-015 18.1903 6.58523 32.1382 49.7332 -10.5953 40.7257 -39.9 -11.8348 68.305 -48.8979 3.23122 14.1202 -3.18055e-015 0 -4.77083e-015 -3.18055e-015 0 -6.36111e-015 1.46398 8.35723 -1.99372 
32.0554 95.9422 -28.8502 0.941936 -0.751229 2.54035 -0.301955 2.7613 -0.245599 5.00869 -3.15344 8.03821 -0.421709 6.1431 -14.1143 4.02203 -1.07586 -0.164459 -3.31651 -4.45504 5.20853 -2.994 -3.732 -0.260075 0.317234 11.1383 -0.616476 -5.81091 -9.80092 0.786811 1.91275 -6.85944 2.4076 -0.593075 5.5237 -0.477446 -0.593074 5.5237 -0.477447 1.48307 3.48223 -2.23454 -24.9433 -1.75501 -3.80107 -50.4708 39.1487 -2.15191 12.3951 0.630771 -24.5475 8.3733 1.02886 -1.7881 -1.76556e-031 -3.18055e-015 -3.18055e-015 3.18055e-015 3.18056e-015 -4.77083e-015 18.0365 5.97843 31.5452 49.6737 -12.5054 39.2683 -34.8399 -16.41 70.1643 -47.7328 2.39334 14.5834 -3.18055e-015 3.18055e-015 6.36111e-015 -3.18055e-015 6.36111e-015 7.95139e-015 0.803885 8.08543 -1.93982 
32.1122 95.941 -28.8802 1.25995 -0.71794 2.30674 -0.344627 2.7464 -0.308999 4.52638 -2.90194 8.14213 -0.183267 5.61561 -14.0192 4.03074 -0.708042 -0.178538 -3.28548 -4.53649 5.19627 -3.407 -4.04541 -0.47246 0.399608 11.6656 -0.529162 -5.71758 -10.1066 1.13158 1.89865 -6.82223 2.40582 -0.679169 5.49457 -0.602448 -0.677368 5.49459 -0.602311 1.149 3.68563 -2.07603 -24.6318 -1.87046 -4.00228 -50.9837 38.3918 -1.79572 12.2926 1.13169 -24.5369 8.44067 0.875149 -1.99157 -3.18055e-015 -3.18055e-015 3.18055e-015 -3.18055e-015 3.18056e-015 3.18055e-015 19.0605 5.79408 30.8281 47.6506 -12.4753 38.2824 -35.7356 -17.0464 69.8587 -47.0919 3.99715 13.5005 -3.18055e-015 0 -1.59028e-015 -3.18055e-015 3.18056e-015 1.59028e-015 0.814 8.19438 -1.89083 
